<?xml version="1.0" encoding="UTF-8"?>
<svg xmlns="http://www.w3.org/2000/svg" width="1800" height="1800" viewBox="0 0 1800 1800">
<rect width="1800" height="1800" fill="#000000"/>
<g transform="translate(0.000000,1800.000000) scale(0.100000,-0.100000)" fill="#D4A937" stroke="none"><path d="M6580 14523 c-177 -10 -511 -62 -533 -82 -7 -7 146 -132 468 -379
151 -116 162 -123 195 -117 37 7 183 40 370 85 115 28 144 29 138 5 -2 -7 -63
-81 -136 -165 -74 -84 -130 -156 -125 -160 4 -4 53 -41 108 -83 55 -42 163
-126 240 -186 77 -61 199 -156 271 -211 l131 -101 217 75 c268 92 284 91 197
-18 -27 -33 -83 -107 -124 -163 -42 -55 -84 -104 -95 -107 -11 -4 -64 2 -119
13 -89 18 -233 39 -386 56 -113 13 -508 7 -652 -10 -607 -70 -1195 -305 -1715
-683 -173 -127 -456 -384 -444 -404 3 -4 223 -8 489 -8 l484 0 44 53 c274 322
366 420 390 412 18 -8 19 -5 -13 -235 -10 -74 -20 -155 -22 -180 l-3 -45 590
0 590 0 93 125 c265 357 260 355 237 59 -9 -112 -17 -204 -18 -205 -117 -73
-377 -295 -512 -436 -476 -496 -757 -1038 -852 -1643 -33 -210 -18 -782 22
-815 19 -16 676 656 670 684 -3 12 -12 80 -20 151 -63 542 -77 515 146 277 78
-84 146 -151 150 -150 4 2 180 174 392 383 l384 381 -38 184 c-56 271 -65 330
-48 340 19 13 31 3 187 -144 79 -75 148 -136 153 -136 4 0 64 53 131 118 203
193 225 212 243 205 13 -4 15 -13 10 -37 -3 -17 -13 -78 -20 -136 -8 -58 -37
-267 -64 -465 -146 -1058 -246 -2160 -311 -3405 -54 -1059 -90 -2119 -90
-2706 0 -248 -2 -283 -16 -288 -9 -3 -304 -6 -657 -6 l-642 0 -50 -24 c-115
-53 -156 -116 -163 -247 -7 -132 40 -216 151 -272 l54 -28 2399 1 2398 0 44
22 c220 106 215 427 -8 527 -44 20 -63 21 -722 21 -372 0 -683 3 -692 6 -14 5
-16 38 -16 268 0 428 -36 1769 -60 2236 -5 107 -12 247 -15 310 -18 367 -75
1297 -100 1615 -26 333 -54 675 -70 850 -9 94 -20 220 -25 280 -16 171 -54
538 -96 910 -14 127 -32 289 -39 360 -8 72 -17 148 -21 171 -13 89 21 68 281
-174 66 -62 124 -112 128 -112 5 0 73 62 152 137 159 151 165 155 185 143 12
-7 12 -22 -3 -97 -10 -48 -27 -133 -38 -188 -10 -55 -25 -131 -33 -170 l-14
-70 168 -175 c93 -96 263 -269 379 -385 l211 -210 163 163 c120 119 168 161
180 156 10 -3 17 -9 17 -13 0 -7 -40 -271 -70 -465 l-21 -139 323 -324 c178
-178 331 -329 340 -334 27 -15 36 15 53 163 85 763 -175 1533 -732 2165 -170
193 -387 391 -564 516 l-66 47 -7 77 c-3 43 -9 136 -13 206 -11 217 4 208 276
-175 l62 -88 583 0 c320 0 585 2 587 5 5 5 4 17 -27 283 -18 160 -15 179 23
165 16 -6 205 -218 318 -355 l79 -98 478 0 c264 0 479 4 482 9 3 5 -29 42 -72
82 -870 830 -2003 1179 -3106 958 -82 -16 -102 -18 -117 -7 -25 17 -249 318
-249 334 0 29 47 20 239 -46 111 -38 209 -70 218 -70 15 0 729 549 747 575 11
15 3 25 -151 198 -157 175 -166 172 225 76 112 -28 209 -49 215 -46 7 2 143
108 304 234 160 126 302 237 315 245 l23 16 -29 11 c-134 52 -558 90 -817 73
-886 -60 -1652 -487 -2118 -1181 -83 -123 -87 -123 -161 -11 -244 369 -611
695 -1005 892 -431 217 -945 328 -1395 301z" /></g>
</svg>
